<svg width="44" height="44" viewBox="0 0 44 44" fill="none" xmlns="http://www.w3.org/2000/svg">
<path d="M31.6333 26.0542C31.2 25.8375 28.3833 24.5375 27.95 24.3208C27.5167 24.1042 27.0833 24.1042 26.65 24.5375C26.2167 24.9708 25.35 26.2708 24.9167 26.7042C24.7 27.1375 24.2667 27.1375 23.8333 26.9208C22.3167 26.2708 20.8 25.4042 19.5 24.3208C18.4167 23.2375 17.3333 21.9375 16.4667 20.6375C16.25 20.2042 16.4667 19.7708 16.6833 19.5542C16.9 19.3375 17.1167 18.9042 17.55 18.6875C17.7667 18.4708 17.9833 18.0375 17.9833 17.8208C18.2 17.6042 18.2 17.1708 17.9833 16.9542C17.7667 16.7375 16.6833 14.1375 16.25 13.0542C16.0333 11.5375 15.6 11.5375 15.1667 11.5375H14.0833C13.65 11.5375 13 11.9708 12.7833 12.1875C11.4833 13.4875 10.8333 15.0042 10.8333 16.7375C11.05 18.6875 11.7 20.6375 13 22.3708C15.3833 25.8375 18.4167 28.6542 22.1 30.3875C23.1833 30.8208 24.05 31.2542 25.1333 31.4708C26.2167 31.9042 27.3 31.9042 28.6 31.6875C30.1167 31.4708 31.4167 30.3875 32.2833 29.0875C32.7167 28.2208 32.7167 27.3542 32.5 26.4875L31.6333 26.0542ZM37.05 6.3375C28.6 -2.1125 14.95 -2.1125 6.5 6.3375C-0.433333 13.2708 -1.73333 23.8875 3.03333 32.3375L0 43.3875L11.4833 40.3542C14.7333 42.0875 18.2 42.9542 21.6667 42.9542C33.5833 42.9542 43.1167 33.4208 43.1167 21.5042C43.3333 15.8708 40.95 10.4542 37.05 6.3375ZM31.2 36.6708C28.3833 38.4042 25.1333 39.4875 21.6667 39.4875C18.4167 39.4875 15.3833 38.6208 12.5667 37.1042L11.9167 36.6708L5.2 38.4042L6.93333 31.9042L6.5 31.2542C1.3 22.5875 3.9 11.7542 12.35 6.3375C20.8 0.920834 31.6333 3.7375 36.8333 11.9708C42.0333 20.4208 39.65 31.4708 31.2 36.6708Z" fill="black"/>
</svg>
